<?xml version="1.0" encoding="UTF-8" standalone="no"?>
<!DOCTYPE svg PUBLIC "-//W3C//DTD SVG 1.1//EN"
 "http://www.w3.org/Graphics/SVG/1.1/DTD/svg11.dtd">
<!-- Generated by graphviz version 2.40.1 (20161225.0304)
 -->
<!-- Title: %3 Pages: 1 -->
<svg width="206pt" height="479pt"
 viewBox="0.00 0.00 206.00 479.00" xmlns="http://www.w3.org/2000/svg" xmlns:xlink="http://www.w3.org/1999/xlink">
<g id="graph0" class="graph" transform="scale(1 1) rotate(0) translate(4 475)">
<title>%3</title>
<polygon fill="#ffffff" stroke="transparent" points="-4,4 -4,-475 202,-475 202,4 -4,4"/>
<!-- 0 -->
<g id="node1" class="node">
<title>0</title>
<ellipse fill="none" stroke="#000000" cx="134" cy="-453" rx="27" ry="18"/>
<text text-anchor="middle" x="134" y="-449.3" font-family="Times,serif" font-size="14.00" fill="#000000">0</text>
</g>
<!-- 1 -->
<g id="node2" class="node">
<title>1</title>
<ellipse fill="none" stroke="#000000" cx="134" cy="-366" rx="27" ry="18"/>
<text text-anchor="middle" x="134" y="-362.3" font-family="Times,serif" font-size="14.00" fill="#000000">1</text>
</g>
<!-- 0&#45;&gt;1 -->
<g id="edge1" class="edge">
<title>0&#45;&gt;1</title>
<path fill="none" stroke="#000000" d="M134,-434.9735C134,-423.1918 134,-407.5607 134,-394.1581"/>
<polygon fill="#000000" stroke="#000000" points="137.5001,-394.0033 134,-384.0034 130.5001,-394.0034 137.5001,-394.0033"/>
<text text-anchor="middle" x="145.5" y="-405.8" font-family="Times,serif" font-size="14.00" fill="#000000">&lt;c&gt;</text>
</g>
<!-- 2 -->
<g id="node3" class="node">
<title>2</title>
<ellipse fill="none" stroke="#000000" cx="99" cy="-279" rx="27" ry="18"/>
<text text-anchor="middle" x="99" y="-275.3" font-family="Times,serif" font-size="14.00" fill="#000000">2</text>
</g>
<!-- 1&#45;&gt;2 -->
<g id="edge2" class="edge">
<title>1&#45;&gt;2</title>
<path fill="none" stroke="#000000" d="M125.9695,-348.5148C123.3508,-342.6616 120.4806,-336.0793 118,-330 114.8374,-322.2495 111.5883,-313.7554 108.6913,-305.9607"/>
<polygon fill="#000000" stroke="#000000" points="111.9755,-304.7507 105.243,-296.57 105.4045,-307.1636 111.9755,-304.7507"/>
<text text-anchor="middle" x="130" y="-318.8" font-family="Times,serif" font-size="14.00" fill="#000000">&lt;b&gt;</text>
</g>
<!-- 7 -->
<g id="node4" class="node">
<title>7</title>
<ellipse fill="none" stroke="#000000" cx="171" cy="-279" rx="27" ry="18"/>
<text text-anchor="middle" x="171" y="-275.3" font-family="Times,serif" font-size="14.00" fill="#000000">7</text>
</g>
<!-- 1&#45;&gt;7 -->
<g id="edge3" class="edge">
<title>1&#45;&gt;7</title>
<path fill="none" stroke="#000000" d="M141.4875,-348.3943C146.6531,-336.2482 153.6196,-319.8674 159.487,-306.0711"/>
<polygon fill="#000000" stroke="#000000" points="162.8308,-307.1517 163.5236,-296.5796 156.3891,-304.4121 162.8308,-307.1517"/>
<text text-anchor="middle" x="166.5" y="-318.8" font-family="Times,serif" font-size="14.00" fill="#000000">&lt;c&gt;</text>
</g>
<!-- 3 -->
<g id="node5" class="node">
<title>3</title>
<ellipse fill="none" stroke="#000000" cx="27" cy="-192" rx="27" ry="18"/>
<text text-anchor="middle" x="27" y="-188.3" font-family="Times,serif" font-size="14.00" fill="#000000">3</text>
</g>
<!-- 2&#45;&gt;3 -->
<g id="edge4" class="edge">
<title>2&#45;&gt;3</title>
<path fill="none" stroke="#000000" d="M85.7941,-263.0429C74.8328,-249.798 59.0821,-230.7659 46.6416,-215.7336"/>
<polygon fill="#000000" stroke="#000000" points="49.1943,-213.3284 40.1222,-207.856 43.8015,-217.7914 49.1943,-213.3284"/>
<text text-anchor="middle" x="76.5" y="-231.8" font-family="Times,serif" font-size="14.00" fill="#000000">&lt;&gt;</text>
</g>
<!-- 4 -->
<g id="node6" class="node">
<title>4</title>
<ellipse fill="none" stroke="#000000" cx="99" cy="-192" rx="27" ry="18"/>
<text text-anchor="middle" x="99" y="-188.3" font-family="Times,serif" font-size="14.00" fill="#000000">4</text>
</g>
<!-- 2&#45;&gt;4 -->
<g id="edge5" class="edge">
<title>2&#45;&gt;4</title>
<path fill="none" stroke="#000000" d="M99,-260.9735C99,-249.1918 99,-233.5607 99,-220.1581"/>
<polygon fill="#000000" stroke="#000000" points="102.5001,-220.0033 99,-210.0034 95.5001,-220.0034 102.5001,-220.0033"/>
<text text-anchor="middle" x="110.5" y="-231.8" font-family="Times,serif" font-size="14.00" fill="#000000">&lt;a&gt;</text>
</g>
<!-- 8 -->
<g id="node9" class="node">
<title>8</title>
<ellipse fill="none" stroke="#000000" cx="171" cy="-192" rx="27" ry="18"/>
<text text-anchor="middle" x="171" y="-188.3" font-family="Times,serif" font-size="14.00" fill="#000000">8</text>
</g>
<!-- 7&#45;&gt;8 -->
<g id="edge8" class="edge">
<title>7&#45;&gt;8</title>
<path fill="none" stroke="#000000" d="M171,-260.9735C171,-249.1918 171,-233.5607 171,-220.1581"/>
<polygon fill="#000000" stroke="#000000" points="174.5001,-220.0033 171,-210.0034 167.5001,-220.0034 174.5001,-220.0033"/>
<text text-anchor="middle" x="179.5" y="-231.8" font-family="Times,serif" font-size="14.00" fill="#000000">&lt;&gt;</text>
</g>
<!-- 5 -->
<g id="node7" class="node">
<title>5</title>
<ellipse fill="none" stroke="#000000" cx="99" cy="-105" rx="27" ry="18"/>
<text text-anchor="middle" x="99" y="-101.3" font-family="Times,serif" font-size="14.00" fill="#000000">5</text>
</g>
<!-- 4&#45;&gt;5 -->
<g id="edge6" class="edge">
<title>4&#45;&gt;5</title>
<path fill="none" stroke="#000000" d="M99,-173.9735C99,-162.1918 99,-146.5607 99,-133.1581"/>
<polygon fill="#000000" stroke="#000000" points="102.5001,-133.0033 99,-123.0034 95.5001,-133.0034 102.5001,-133.0033"/>
<text text-anchor="middle" x="110.5" y="-144.8" font-family="Times,serif" font-size="14.00" fill="#000000">&lt;c&gt;</text>
</g>
<!-- 6 -->
<g id="node8" class="node">
<title>6</title>
<ellipse fill="none" stroke="#000000" cx="99" cy="-18" rx="27" ry="18"/>
<text text-anchor="middle" x="99" y="-14.3" font-family="Times,serif" font-size="14.00" fill="#000000">6</text>
</g>
<!-- 5&#45;&gt;6 -->
<g id="edge7" class="edge">
<title>5&#45;&gt;6</title>
<path fill="none" stroke="#000000" d="M99,-86.9735C99,-75.1918 99,-59.5607 99,-46.1581"/>
<polygon fill="#000000" stroke="#000000" points="102.5001,-46.0033 99,-36.0034 95.5001,-46.0034 102.5001,-46.0033"/>
<text text-anchor="middle" x="107.5" y="-57.8" font-family="Times,serif" font-size="14.00" fill="#000000">&lt;&gt;</text>
</g>
</g>
</svg>
